<?xml version="1.0" encoding="utf-8"?>
<!-- Generator: Adobe Illustrator 22.1.0, SVG Export Plug-In . SVG Version: 6.00 Build 0)  -->
<svg version="1.1" id="Layer_1" xmlns="http://www.w3.org/2000/svg" xmlns:xlink="http://www.w3.org/1999/xlink" x="0px" y="0px"
	 viewBox="0 0 500 500" style="enable-background:new 0 0 500 500;" xml:space="preserve">
<style type="text/css">
	.st0{fill:#3A283A;}
	.st1{fill:#CB61D1;}
	.st2{fill:#7C1C84;}
</style>
<rect class="st0" width="500" height="500"/>
<g>
	<g>
		<g>
			<path class="st1" d="M372.6,279.1l-0.1,3.5c0,0,8.7,9.6,16.2,3.9c1.6-1.2,2.8-3,3.5-4.9l2.3-6.3
				C394.4,270.5,377.8,277,372.6,279.1z"/>
			<path class="st2" d="M392.5,272.5c-4.9-0.6-14.7-1.4-19.7,0.3l-0.2,6.3c5.2-2.2,21.7-8.7,21.9-3.8
				C395,274.1,393.9,272.7,392.5,272.5z"/>
		</g>
		<path class="st1" d="M328.5,279.1l0.4,3.4c0,0-7.1,8.8-14.3,2.9c-1.6-1.3-2.7-3-3.5-4.9l-2.6-6.2
			C308.3,269.6,323.7,276.8,328.5,279.1z"/>
		<path class="st2" d="M310.1,271.7c4.4-0.3,13.1-0.5,17.7,1.3l0.7,6.1c-4.8-2.3-20.2-9.5-20-4.8C308,273.1,308.8,271.8,310.1,271.7
			z"/>
		<path class="st1" d="M388,305.9c0.5,0.2,0.8-0.4,0.4-0.7c-4.6-3-10.8-4.5-9.6,9.9c1.9,22.4,6.2,33.9-8.9,31.3c0,0-4.1,1.4-0.7,5
			c0,0,24.2,8.4,13.1-34.7c-0.5-1.8-0.7-3.6-0.7-5.4C381.6,307.9,382.7,303.7,388,305.9z"/>
		<path class="st1" d="M362.4,358.5c0,0-0.4,1.5,1.6,1.6c2,0.2,10.1,0.3,12.6,1.7c1.5,0.9,2.7,2.1,3.4,3c0.1,0.2-0.1,0.4-0.2,0.3
			c-1-0.7-2.7-1.7-3.6-2c-0.2-0.1-0.3,0.1-0.2,0.3c0.5,0.7,1.6,2.3,2,3.2c0.1,0.2-0.1,0.3-0.3,0.2L374,364c-0.2-0.1-0.4,0.1-0.3,0.2
			c0.4,0.7,0.9,1.7,1.2,2.4c0.1,0.2-0.1,0.3-0.3,0.2c-1.2-0.9-4.5-3.3-5.2-3.3c-0.7,0-10.7-1.9-10.7-1.9s-1.5-0.7,0-1.6
			c0,0,0.9-0.3,0.8-1.1C359.4,358.2,362.5,356.3,362.4,358.5z"/>
		<path class="st1" d="M338.9,358.5c0,0,0.4,1.5-1.6,1.6c-2,0.2-10.1,0.3-12.6,1.7c-1.5,0.9-2.7,2.1-3.4,3c-0.1,0.2,0.1,0.4,0.2,0.3
			c1-0.7,2.7-1.7,3.6-2c0.2-0.1,0.3,0.1,0.2,0.3c-0.5,0.7-1.6,2.3-2,3.2c-0.1,0.2,0.1,0.3,0.3,0.2l3.5-2.8c0.2-0.1,0.4,0.1,0.3,0.2
			c-0.4,0.7-0.9,1.7-1.2,2.4c-0.1,0.2,0.1,0.3,0.3,0.2c1.2-0.9,4.5-3.3,5.2-3.3c0.7,0,10.7-1.9,10.7-1.9s1.5-0.7,0-1.6
			c0,0-0.9-0.3-0.8-1.1C341.8,358.2,338.8,356.3,338.9,358.5z"/>
		<g>
			<g>
				<path class="st2" d="M326.9,280.8c0.4,1,0.8,1.9,1.3,2.8h44.7c0.5-0.9,0.9-1.9,1.3-2.8H326.9z"/>
				<path class="st2" d="M325.7,272.6c0.4,1,0.8,1.9,1.3,2.8h46.1c0.5-0.9,0.9-1.9,1.3-2.8H325.7z"/>
				<path class="st2" d="M330.9,288.1c0.7,1,1.4,1.9,2.2,2.8h34.7c0.8-0.9,1.5-1.9,2.2-2.8H330.9z"/>
				<path class="st2" d="M337.4,295.4c1.1,1,2.2,2,3.2,2.8h19.8c1-0.9,2.1-1.8,3.2-2.8H337.4z"/>
				<path class="st2" d="M336.1,312.9h28.8c-1-1-2-2-3-2.8h-22.8C338.1,310.9,337.1,311.9,336.1,312.9z"/>
				<path class="st2" d="M330,320.2H371c-0.6-1-1.3-1.9-2.1-2.8h-36.8C331.4,318.3,330.7,319.2,330,320.2z"/>
				<path class="st2" d="M326.4,327.5h48.1c-0.3-1-0.7-1.9-1.1-2.8h-45.9C327.1,325.6,326.7,326.6,326.4,327.5z"/>
				<path class="st2" d="M325.3,334.4c0,0.1,0,0.3,0,0.4h50.4c0-0.1,0-0.3,0-0.4c0-0.8,0-1.6-0.1-2.4h-50.1
					C325.3,332.8,325.3,333.6,325.3,334.4z"/>
				<path class="st2" d="M325.9,339.3c0.2,1,0.5,1.9,0.9,2.8h47.5c0.3-0.9,0.6-1.9,0.9-2.8H325.9z"/>
				<path class="st2" d="M328.8,346.6c0.6,1,1.2,1.9,1.8,2.8h39.7c0.6-0.9,1.2-1.9,1.8-2.8H328.8z"/>
				<path class="st2" d="M334.2,354c0.9,1,1.8,2,2.8,2.8H364c0.9-0.9,1.9-1.8,2.8-2.8H334.2z"/>
			</g>
			<g>
				<path class="st1" d="M325.3,334.4c0,0.1,0,0.3,0,0.4c0,1.5,0.2,3,0.6,4.5c0.2,1,0.5,1.9,0.9,2.8c0.6,1.5,1.3,3,2.1,4.5
					c0.6,1,1.2,1.9,1.8,2.8c1.1,1.6,2.3,3.1,3.6,4.5c0.9,1,1.8,2,2.8,2.8c5.8,5.6,11.7,9.1,12.1,9.4l1.4,0.8l1.4-0.8
					c0.5-0.3,6.4-3.8,12.1-9.4c0.9-0.9,1.9-1.8,2.8-2.8c1.3-1.4,2.5-2.9,3.6-4.5c0.6-0.9,1.2-1.9,1.8-2.8c0.8-1.4,1.5-2.9,2.1-4.5
					c0.3-0.9,0.6-1.9,0.9-2.8c0.3-1.5,0.5-2.9,0.6-4.5c0-0.1,0-0.3,0-0.4c0-0.8,0-1.6-0.1-2.4c-0.2-1.5-0.5-3-1-4.5
					c-0.3-1-0.7-1.9-1.1-2.8c-0.7-1.5-1.6-3-2.5-4.5c-0.6-1-1.3-1.9-2.1-2.8c-1.3-1.6-2.6-3.1-4-4.5c-1-1-2-2-3-2.8
					c-2-1.8-4-3.3-5.6-4.5c-1.2-0.9-2.2-1.6-3-2.1c-0.6-0.4-1.1-0.7-1.3-0.8c0,0-0.1-0.1-0.1-0.1l-1.3-0.8l-0.1-0.1l-0.1,0.1
					l-1.3,0.8c0,0-0.1,0-0.1,0.1c-0.2,0.1-0.7,0.4-1.3,0.8c-0.8,0.5-1.8,1.2-3,2.1c-1.6,1.2-3.6,2.7-5.6,4.5c-1,0.9-2,1.8-3,2.8
					c-1.4,1.4-2.7,2.9-4,4.5c-0.7,0.9-1.4,1.9-2.1,2.8c-0.9,1.4-1.8,2.9-2.5,4.5c-0.4,0.9-0.8,1.9-1.1,2.8c-0.5,1.5-0.8,2.9-1,4.5
					C325.3,332.8,325.3,333.6,325.3,334.4z M328.1,334.8c0-0.1,0-0.3,0-0.4c0-0.8,0.1-1.6,0.2-2.4c0.2-1.5,0.6-3,1.1-4.5
					c0.4-1,0.8-1.9,1.3-2.8c0.8-1.6,1.8-3,2.8-4.5c0.7-1,1.5-1.9,2.3-2.8c1.4-1.6,2.9-3.1,4.4-4.5c1.1-1,2.3-2,3.3-2.8
					c2.7-2.2,5-3.7,6.2-4.5c0.3-0.2,0.6-0.4,0.7-0.5c0.1,0,0.1-0.1,0.1-0.1s0,0,0.1,0.1c0.1,0.1,0.4,0.2,0.7,0.5
					c1.2,0.8,3.5,2.3,6.2,4.5c1.1,0.9,2.2,1.8,3.3,2.8c1.5,1.3,3,2.9,4.4,4.5c0.8,0.9,1.6,1.9,2.3,2.8c1,1.4,2,2.9,2.8,4.5
					c0.5,0.9,0.9,1.9,1.3,2.8c0.5,1.5,0.9,2.9,1.1,4.5c0.1,0.8,0.2,1.6,0.2,2.4c0,0.1,0,0.3,0,0.4c0,1.5-0.3,3-0.7,4.5
					c-0.3,1-0.6,1.9-1,2.8c-0.6,1.5-1.4,3-2.4,4.5c-0.6,1-1.3,1.9-2,2.8c-1.2,1.6-2.6,3.1-4,4.5c-1,1-2,2-3,2.8c-5,4.4-9.4,7-9.4,7
					s-4.5-2.6-9.4-7c-1-0.9-2-1.8-3-2.8c-1.4-1.4-2.7-2.9-4-4.5c-0.7-0.9-1.4-1.9-2-2.8c-0.9-1.4-1.7-2.9-2.4-4.5
					c-0.4-0.9-0.7-1.9-1-2.8C328.3,337.9,328.1,336.4,328.1,334.8z"/>
				<path class="st1" d="M325.3,272.6c0,2.8,0.6,5.6,1.6,8.2c0.4,1,0.8,1.9,1.3,2.8c0.8,1.6,1.7,3,2.8,4.5c0.7,1,1.4,1.9,2.2,2.8
					c1.4,1.6,2.8,3.1,4.2,4.5c1.1,1,2.2,2,3.2,2.8c2.3,1.9,4.4,3.4,5.9,4.5c0.4,0.3,0.8,0.6,1.2,0.8c0.8,0.5,1.3,0.8,1.4,0.9
					l1.3,0.8l0.1,0.1l0.1-0.1l1.3-0.8c0.1-0.1,0.6-0.4,1.4-0.9c0.3-0.2,0.7-0.5,1.2-0.8c1.5-1,3.7-2.6,5.9-4.5
					c1-0.9,2.1-1.8,3.2-2.8c1.4-1.4,2.9-2.9,4.2-4.5c0.8-0.9,1.5-1.9,2.2-2.8c1-1.4,2-2.9,2.8-4.5c0.5-0.9,0.9-1.9,1.3-2.8
					c1-2.6,1.6-5.3,1.6-8.2h-2.8c0,2.8-0.7,5.6-1.8,8.2c-0.4,1-0.9,1.9-1.4,2.8c-0.9,1.6-1.9,3.1-3.1,4.5c-0.8,1-1.6,1.9-2.5,2.8
					c-1.5,1.6-3.1,3.1-4.7,4.5c-1.2,1.1-2.4,2-3.5,2.8c-2.7,2.1-4.8,3.4-5.3,3.7c-0.1,0-0.1,0.1-0.1,0.1s0,0-0.1-0.1
					c-0.5-0.3-2.6-1.6-5.3-3.7c-1.1-0.8-2.3-1.8-3.5-2.8c-1.5-1.3-3.1-2.8-4.7-4.5c-0.8-0.9-1.7-1.9-2.5-2.8
					c-1.1-1.4-2.2-2.9-3.1-4.5c-0.5-0.9-1-1.9-1.4-2.8c-1.1-2.6-1.8-5.3-1.8-8.2H325.3z"/>
			</g>
		</g>
	</g>
	<g>
		<path class="st1" d="M248.8,362.1c-2.7,5.5-6.1,10.7-10,15.5c-4,4.7-8.6,9.1-14.2,12c-2.8,1.5-5.9,2.5-9.1,3
			c-3.2,0.5-6.5,0.2-9.7-0.6c-6.3-1.6-11.8-5.4-16.4-9.7c-4.6-4.4-8.5-9.3-11.9-14.5c-3.5-5.2-6.6-10.6-9.4-16.1
			c-5.6-11-10.4-22.4-14.6-34c-4.3-11.6-8.1-23.2-11.6-35c-1.7-5.9-3.4-11.8-4.9-17.8c-0.8-3-1.5-6-2.2-8.9l-1-4.5
			c-0.1-0.4-0.2-0.7-0.2-1c-0.1-0.3-0.1-0.6-0.2-0.9l-0.3-0.9l-0.4-0.8c-1-2.2-2.5-4.2-4.4-5.7c-1-0.7-2-1.3-3.1-1.8
			c-1.1-0.5-2.3-0.7-3.5-0.9l-0.9-0.1c-0.2,0-0.5,0-0.7,0c-0.3,0-0.5,0-0.8,0.1c-0.3,0-0.5,0.1-0.8,0.2c-1.1,0.3-2.1,0.7-3,1.4
			c-1.8,1.3-3.2,3.3-4,5.8c-0.2,0.6-0.4,1.3-0.5,1.9c-0.2,0.6-0.2,1.3-0.3,2l-0.1,0.5c0,0.2,0,0.3,0,0.4c0,0.3,0,0.6,0,0.8
			c0,0.3,0,0.5,0.1,0.8l0.1,0.4l0.1,0.4c0.4,1,1,1.8,2,2.4c1,0.6,2.2,1,3.4,1.1c0.3,0,0.6,0.1,1,0.1c0.3,0,0.7,0,1,0
			c0.3,0,0.7-0.1,1-0.1c0.3-0.1,0.7-0.1,0.9-0.2c1-0.3,2-1.2,2.8-2.3c0.7-1.1,1.1-2.4,1.1-3.8c0-1.4-0.3-2.8-0.9-4.2l0,0
			c-0.1-0.2,0-0.4,0.2-0.5c0.2-0.1,0.4,0,0.5,0.1c0.9,1.3,1.6,2.8,1.9,4.5c0.2,1.7,0,3.4-0.7,5c-0.7,1.6-1.9,3.1-3.7,4
			c-0.5,0.3-0.8,0.3-1.3,0.5c-0.4,0.2-0.8,0.3-1.2,0.4c-0.4,0.1-0.9,0.2-1.3,0.2c-0.4,0.1-0.9,0.1-1.3,0.1c-1.8,0.1-3.6-0.3-5.4-1.1
			c-1.7-0.8-3.3-2.3-4.2-4l-0.4-0.7l-0.3-0.7c-0.2-0.5-0.3-1-0.4-1.4c-0.1-0.5-0.2-1-0.2-1.5c0-0.2,0-0.5,0-0.7l0-0.6
			c0-0.8,0-1.7,0.1-2.5c0.1-0.9,0.2-1.7,0.4-2.6c0.3-1.7,1-3.4,1.9-5.1c0.9-1.6,2.2-3.1,3.6-4.4c1.5-1.2,3.2-2.2,5.1-2.8
			c0.5-0.2,0.9-0.3,1.4-0.4c0.5-0.1,1-0.2,1.5-0.3c0.5-0.1,1-0.1,1.5-0.1l1.4,0.1c3.7,0.2,7.3,1.6,10.3,3.7c3,2.1,5.5,5,7.2,8.3
			l0.6,1.3l0.5,1.3c0.2,0.4,0.3,0.9,0.4,1.3c0.1,0.4,0.3,0.9,0.3,1.3l1.1,4.4c0.7,2.9,1.4,5.9,2.2,8.8l4.4,17.7
			c2.9,11.8,6.3,23.5,10,35c3.8,11.5,8.1,22.9,13.2,33.8c2.6,5.5,5.4,10.8,8.6,15.9c3.2,5.1,6.7,9.9,10.9,14.1
			c4.1,4.2,8.9,7.8,14.4,9.4c2.7,0.8,5.6,1.2,8.5,0.9c2.9-0.3,5.7-1.1,8.3-2.4c5.3-2.5,10-6.5,14-10.9c4.1-4.5,7.6-9.4,10.6-14.7
			l0,0c0.1-0.2,0.4-0.3,0.5-0.2C248.8,361.6,248.9,361.9,248.8,362.1z"/>
		<g>
			<g>
				<path class="st2" d="M304,154.4c-0.9,2.4-2,4.7-3.2,7H191c-1.2-2.3-2.2-4.6-3.2-7H304z"/>
				<path class="st2" d="M306.9,134.4c-1,2.4-2,4.7-3.3,7H190.2c-1.2-2.3-2.3-4.6-3.3-7H306.9z"/>
				<path class="st2" d="M294.1,172.4c-1.7,2.4-3.6,4.8-5.5,7h-85.4c-1.9-2.3-3.7-4.6-5.5-7H294.1z"/>
				<path class="st2" d="M278.2,190.4c-2.7,2.5-5.3,4.9-7.9,7h-48.8c-2.6-2.1-5.2-4.5-7.9-7H278.2z"/>
				<path class="st2" d="M281.4,233.4h-70.9c2.5-2.5,5-4.8,7.4-7H274C276.4,228.6,278.9,230.9,281.4,233.4z"/>
				<path class="st2" d="M296.2,251.4H195.6c1.6-2.4,3.3-4.8,5.1-7h90.5C292.9,246.6,294.6,249,296.2,251.4z"/>
				<path class="st2" d="M305.1,269.4H186.7c0.8-2.4,1.7-4.7,2.8-7h112.9C303.4,264.7,304.3,267,305.1,269.4z"/>
				<path class="st2" d="M307.9,286.3c0,0.3,0,0.7,0,1.1h-124c0-0.4,0-0.7,0-1.1c0-2,0.1-4,0.3-5.9h123.3
					C307.8,282.4,307.9,284.3,307.9,286.3z"/>
				<path class="st2" d="M306.5,298.4c-0.6,2.4-1.3,4.7-2.1,7H187.5c-0.8-2.3-1.5-4.6-2.1-7H306.5z"/>
				<path class="st2" d="M299.2,316.4c-1.4,2.4-2.9,4.7-4.4,7h-97.7c-1.6-2.3-3.1-4.6-4.4-7H299.2z"/>
				<path class="st2" d="M286,334.4c-2.2,2.5-4.5,4.8-6.8,7h-66.6c-2.3-2.2-4.5-4.5-6.8-7H286z"/>
			</g>
			<g>
				<path class="st1" d="M307.6,280.4c-0.4-3.8-1.3-7.4-2.5-11c-0.8-2.4-1.7-4.7-2.8-7c-1.7-3.8-3.8-7.5-6.1-11
					c-1.6-2.4-3.3-4.8-5.1-7c-3.1-3.9-6.4-7.6-9.8-11c-2.5-2.5-5-4.8-7.4-7c-5-4.4-9.8-8.1-13.8-11c-3-2.2-5.5-3.9-7.4-5.1
					c-1.5-1-2.6-1.6-3.1-1.9c-0.1-0.1-0.2-0.1-0.3-0.2l-3.2-1.8l-0.3-0.2l-0.3,0.2l-3.2,1.8c-0.1,0-0.2,0.1-0.3,0.2
					c-0.5,0.3-1.6,1-3.1,1.9c-1.9,1.2-4.4,2.9-7.4,5.1c-4,2.9-8.8,6.6-13.8,11c-2.4,2.2-5,4.5-7.4,7c-3.4,3.4-6.7,7.1-9.8,11
					c-1.8,2.3-3.5,4.6-5.1,7c-2.3,3.5-4.4,7.2-6.1,11c-1,2.3-2,4.6-2.8,7c-1.2,3.6-2,7.2-2.5,11c-0.2,2-0.3,3.9-0.3,5.9
					c0,0.3,0,0.7,0,1.1c0.1,3.8,0.6,7.4,1.4,11c0.6,2.4,1.3,4.7,2.1,7c1.4,3.8,3.1,7.5,5.2,11c1.4,2.4,2.9,4.7,4.4,7
					c2.7,3.9,5.7,7.6,8.8,11c2.2,2.5,4.5,4.8,6.8,7c14.2,13.8,28.7,22.3,29.9,23l3.4,2l3.4-2c1.2-0.7,15.6-9.3,29.9-23
					c2.3-2.2,4.5-4.5,6.8-7c3.1-3.4,6.1-7.1,8.8-11c1.6-2.3,3.1-4.6,4.4-7c2-3.5,3.8-7.2,5.2-11c0.8-2.3,1.5-4.6,2.1-7
					c0.8-3.6,1.3-7.3,1.4-11c0-0.4,0-0.7,0-1.1C307.9,284.3,307.8,282.4,307.6,280.4z M299.5,298.4c-0.6,2.4-1.4,4.7-2.4,7
					c-1.6,3.8-3.5,7.5-5.8,11c-1.5,2.4-3.2,4.8-5,7c-3,3.9-6.3,7.6-9.7,11c-2.5,2.5-5,4.8-7.5,7c-12.2,10.7-23.2,17.2-23.2,17.2
					s-11-6.5-23.2-17.2c-2.5-2.2-5-4.5-7.5-7c-3.4-3.4-6.7-7.1-9.7-11c-1.8-2.3-3.4-4.6-5-7c-2.3-3.5-4.2-7.2-5.8-11
					c-1-2.3-1.8-4.6-2.4-7c-1-3.6-1.5-7.3-1.6-11c0-0.4,0-0.7,0-1.1c0-2,0.1-4,0.4-5.9c0.5-3.8,1.5-7.4,2.8-11
					c0.9-2.4,1.9-4.7,3.1-7c2-3.8,4.3-7.5,6.9-11c1.8-2.4,3.7-4.8,5.6-7c3.5-4,7.2-7.7,10.8-11c2.8-2.5,5.6-4.9,8.2-7
					c6.7-5.3,12.4-9.2,15.3-11c0.9-0.5,1.5-0.9,1.8-1.1c0.2-0.1,0.3-0.2,0.3-0.2s0.1,0.1,0.3,0.2c0.3,0.2,0.9,0.6,1.8,1.1
					c2.9,1.8,8.7,5.7,15.3,11c2.6,2.1,5.4,4.5,8.2,7c3.6,3.3,7.3,7,10.8,11c2,2.2,3.8,4.6,5.6,7c2.6,3.5,4.9,7.2,6.9,11
					c1.2,2.3,2.2,4.6,3.1,7c1.3,3.6,2.3,7.3,2.8,11c0.3,2,0.4,3.9,0.4,5.9c0,0.4,0,0.7,0,1.1C301,291.1,300.4,294.8,299.5,298.4z"/>
				<path class="st1" d="M307.9,134.3c0,7-1.5,13.7-3.9,20.1c-0.9,2.4-2,4.7-3.2,7c-2,3.8-4.3,7.5-6.8,11c-1.7,2.4-3.6,4.8-5.5,7
					c-3.4,4-6.9,7.6-10.4,11c-2.7,2.5-5.3,4.9-7.9,7c-5.6,4.7-10.8,8.4-14.6,11c-1.1,0.7-2.1,1.4-2.9,1.9c-1.9,1.2-3.1,1.9-3.4,2.1
					l-3.2,1.9l-0.3,0.2l-0.3-0.2l-3.2-1.9c-0.3-0.2-1.5-0.9-3.4-2.1c-0.8-0.5-1.8-1.2-2.9-1.9c-3.8-2.6-9-6.3-14.6-11
					c-2.6-2.1-5.2-4.5-7.9-7c-3.5-3.4-7.1-7-10.4-11c-1.9-2.3-3.7-4.6-5.5-7c-2.5-3.5-4.8-7.2-6.8-11c-1.2-2.3-2.2-4.6-3.2-7
					c-2.4-6.4-3.9-13.1-3.9-20.1h6.8c0,7,1.7,13.7,4.5,20.1c1,2.4,2.2,4.7,3.5,7c2.2,3.8,4.8,7.5,7.6,11c1.9,2.4,4,4.8,6,7
					c3.8,4,7.7,7.7,11.5,11c3,2.6,6,5,8.7,7c6.7,5.1,11.9,8.3,13.1,9c0.2,0.1,0.3,0.2,0.3,0.2s0.1-0.1,0.3-0.2
					c1.2-0.7,6.4-3.9,13.1-9c2.7-2,5.6-4.4,8.7-7c3.8-3.3,7.7-7,11.5-11c2.1-2.2,4.1-4.6,6-7c2.8-3.5,5.3-7.2,7.6-11
					c1.3-2.3,2.5-4.6,3.5-7c2.8-6.4,4.5-13.1,4.5-20.1H307.9z"/>
			</g>
		</g>
		<path class="st1" d="M300.3,142.4c0.8-4.4,0.7-8.9-0.6-13.1c-2.4-8.4-5.2-23,4.7-22c13.9,1.4,16.5,26.4,15.6,32.2
			c-2,14-7.8,15.2-13,16.4c-5.2,1.2-8.7-3.2-8.7-3.2S299.4,147.2,300.3,142.4z"/>
		<path class="st1" d="M191.3,142.4c-0.8-4.4-0.7-8.9,0.6-13.1c2.4-8.4,5.2-23-4.7-22c-13.9,1.4-16.5,26.4-15.6,32.2
			c2,14,7.8,15.2,13,16.4c5.2,1.2,8.7-3.2,8.7-3.2S192.2,147.2,191.3,142.4z"/>
		<path class="st1" d="M206.9,173.2c-4.4-1.2-8.7-2.1-13.1-2.9c-4.4-0.8-8.7-1.4-13.1-1.6c-2.2-0.1-4.4-0.2-6.6-0.1
			c-2.2,0-4.4,0.2-6.6,0.4c-4.4,0.4-8.7,1.4-13,2.7c3.8-2.6,8.1-4.3,12.6-5.3c2.2-0.5,4.5-0.8,6.8-1c1.2-0.1,2.3-0.1,3.5-0.1
			c1.2,0,2.3,0,3.5,0.1c4.6,0.3,9.1,1.1,13.5,2.4C198.8,169.1,203,170.8,206.9,173.2z"/>
		<path class="st1" d="M214.5,184.8c-4.4-1-8.8-1.8-13.2-2.5c-4.4-0.6-8.8-1.1-13.1-1.2c-2.2-0.1-4.4,0-6.6,0.1
			c-2.2,0.1-4.4,0.3-6.5,0.6c-4.4,0.6-8.6,1.7-12.9,3.2c3.7-2.7,7.9-4.6,12.4-5.8c2.2-0.6,4.5-1,6.8-1.2c1.1-0.1,2.3-0.2,3.4-0.3
			c1.2,0,2.3-0.1,3.5,0c4.6,0.1,9.2,0.8,13.6,1.9C206.2,180.9,210.5,182.5,214.5,184.8z"/>
		<path class="st1" d="M226.9,197.4c-4.4-1.2-8.7-2.1-13.1-2.9c-4.4-0.8-8.7-1.4-13.1-1.6c-2.2-0.1-4.4-0.2-6.6-0.1
			c-2.2,0-4.4,0.2-6.6,0.4c-4.4,0.4-8.7,1.4-13,2.7c3.8-2.6,8.1-4.3,12.6-5.3c2.2-0.5,4.5-0.8,6.8-1c1.2-0.1,2.3-0.1,3.5-0.1
			c1.2,0,2.3,0,3.5,0.1c4.6,0.3,9.1,1.1,13.5,2.4C218.8,193.2,223.1,195,226.9,197.4z"/>
		<path class="st1" d="M285.6,173.2c4.4-1.2,8.7-2.1,13.1-2.9c4.4-0.8,8.7-1.4,13.1-1.6c2.2-0.1,4.4-0.2,6.6-0.1
			c2.2,0,4.4,0.2,6.6,0.4c4.4,0.4,8.7,1.4,13,2.7c-3.8-2.6-8.1-4.3-12.6-5.3c-2.2-0.5-4.5-0.8-6.8-1c-1.2-0.1-2.3-0.1-3.5-0.1
			c-1.2,0-2.3,0-3.5,0.1c-4.6,0.3-9.1,1.1-13.5,2.4C293.7,169.1,289.4,170.8,285.6,173.2z"/>
		<path class="st1" d="M278,184.8c4.4-1,8.8-1.8,13.2-2.5c4.4-0.6,8.8-1.1,13.1-1.2c2.2-0.1,4.4,0,6.6,0.1c2.2,0.1,4.4,0.3,6.5,0.6
			c4.4,0.6,8.6,1.7,12.9,3.2c-3.7-2.7-7.9-4.6-12.4-5.8c-2.2-0.6-4.5-1-6.8-1.2c-1.1-0.1-2.3-0.2-3.4-0.3c-1.2,0-2.3-0.1-3.5,0
			c-4.6,0.1-9.2,0.8-13.6,1.9C286.3,180.9,282,182.5,278,184.8z"/>
		<path class="st1" d="M265.6,197.4c4.4-1.2,8.7-2.1,13.1-2.9c4.4-0.8,8.7-1.4,13.1-1.6c2.2-0.1,4.4-0.2,6.6-0.1
			c2.2,0,4.4,0.2,6.6,0.4c4.4,0.4,8.7,1.4,13,2.7c-3.8-2.6-8.1-4.3-12.6-5.3c-2.2-0.5-4.5-0.8-6.8-1c-1.2-0.1-2.3-0.1-3.5-0.1
			c-1.2,0-2.3,0-3.5,0.1c-4.6,0.3-9.1,1.1-13.5,2.4C273.7,193.2,269.4,195,265.6,197.4z"/>
	</g>
</g>
<g>
</g>
<g>
</g>
<g>
</g>
<g>
</g>
<g>
</g>
<g>
</g>
<g>
</g>
<g>
</g>
<g>
</g>
<g>
</g>
<g>
</g>
<g>
</g>
<g>
</g>
<g>
</g>
<g>
</g>
</svg>
